<svg width="100%" height="100%" viewBox="0 0 554 725" xmlns="http://www.w3.org/2000/svg">
	<path fill="black" stroke="black" transform="translate(218,725) scale(1,-1)" d="M144,534 C108.667,498.667,91,456,91,406 C91,356,108.667,313.167,144,277.5 C179.333,241.833,222.167,224,272.5,224 C322.833,224,365.667,241.833,401,277.5 C436.333,313.167,454,356,454,406 C454,456,436.333,498.667,401,534 C365.667,569.333,322.833,587,272.5,587 C222.167,587,179.333,569.333,144,534Z M212,329 C212,329,212,329,212,329 C205.333,329,202,330,202,332 C202,332,202,332,202,332 C202,333.333,202.333,335,203,337 C203,337,203,337,203,337 C203,337,258,479,258,479 C259.333,481.667,264,483,272,483 C272,483,272,483,272,483 C281.333,483,286.333,481.667,287,479 C287,479,287,479,287,479 C287,479,342,337,342,337 C342.667,335,343,333.333,343,332 C343,332,343,332,343,332 C343.667,330,340.333,329,333,329 C325.667,329,321.333,330,320,332 C320,332,320,332,320,332 C320,332,306,370,306,370 C306,370,238,370,238,370 C238,370,224,333,224,333 C223.333,330.333,219.333,329,212,329Z M300,386 C300,386,272,462,272,462 C272,462,243,386,243,386 C243,386,300,386,300,386Z"/>
</svg>

