<svg width="100%" height="100%" viewBox="0 0 554 725" xmlns="http://www.w3.org/2000/svg">
	<path fill="black" stroke="black" transform="translate(218,725) scale(1,-1)" d="M400.878,277.469 C436.293,313.115,454,355.792,454,405.5 C454,455.208,436.293,497.885,400.878,533.531 C365.463,569.177,322.671,587,272.5,587 C222.329,587,179.537,569.177,144.122,533.531 C108.707,497.885,91,455.208,91,405.5 C91,355.792,108.707,313.115,144.122,277.469 C179.537,241.823,222.329,224,272.5,224 C322.671,224,365.463,241.823,400.878,277.469Z M227.74,338.786 C227.74,338.786,227.74,472.214,227.74,472.214 C227.74,477.446,230.363,480.062,235.61,480.062 C235.61,480.062,235.61,480.062,235.61,480.062 C235.61,480.062,272.992,480.062,272.992,480.062 C307.095,480.062,324.146,467.635,324.146,442.781 C324.146,442.781,324.146,442.781,324.146,442.781 C324.146,427.084,316.932,416.292,302.504,410.405 C302.504,410.405,302.504,410.405,302.504,410.405 C311.686,409.097,319.228,405.173,325.13,398.632 C331.033,392.092,333.984,383.589,333.984,373.124 C333.984,373.124,333.984,373.124,333.984,373.124 C333.984,358.735,328.901,348.107,318.736,341.239 C308.57,334.372,294.962,330.938,277.911,330.938 C277.911,330.938,277.911,330.938,277.911,330.938 C277.911,330.938,235.61,330.938,235.61,330.938 C230.363,330.938,227.74,333.554,227.74,338.786 C227.74,338.786,227.74,338.786,227.74,338.786Z M301.52,440.819 C301.52,440.819,301.52,440.819,301.52,440.819 C301.52,456.516,291.355,464.365,271.024,464.365 C271.024,464.365,271.024,464.365,271.024,464.365 C271.024,464.365,249.382,464.365,249.382,464.365 C249.382,464.365,249.382,415.311,249.382,415.311 C249.382,415.311,273.976,415.311,273.976,415.311 C292.339,415.311,301.52,423.814,301.52,440.819Z M311.358,372.143 C311.358,372.143,311.358,372.143,311.358,372.143 C311.358,390.457,299.225,399.614,274.959,399.614 C274.959,399.614,274.959,399.614,274.959,399.614 C274.959,399.614,249.382,399.614,249.382,399.614 C249.382,399.614,249.382,346.635,249.382,346.635 C249.382,346.635,279.878,346.635,279.878,346.635 C300.864,346.635,311.358,355.138,311.358,372.143Z"/>
</svg>

