<svg width="100%" height="100%" viewBox="0 0 554 725" xmlns="http://www.w3.org/2000/svg">
	<path fill="black" stroke="black" transform="translate(218,725) scale(1,-1)" d="M400.878,533.878 C365.463,569.293,322.671,587,272.5,587 C222.329,587,179.537,569.293,144.122,533.878 C108.707,498.463,91,455.671,91,405.5 C91,355.329,108.707,312.537,144.122,277.122 C179.537,241.707,222.329,224,272.5,224 C322.671,224,365.463,241.707,400.878,277.122 C436.293,312.537,454,355.329,454,405.5 C454,455.671,436.293,498.463,400.878,533.878Z M147.073,421.732 C147.073,421.732,272.992,539.78,272.992,539.78 C272.992,539.78,398.911,421.732,398.911,421.732 C398.911,421.732,371.366,421.732,371.366,421.732 C371.366,421.732,371.366,304.667,371.366,304.667 C371.366,304.667,174.618,304.667,174.618,304.667 C174.618,304.667,174.618,421.732,174.618,421.732 C174.618,421.732,147.073,421.732,147.073,421.732Z M306.439,419.764 C306.439,419.764,238.561,419.764,238.561,419.764 C232.659,419.764,229.707,416.813,229.707,410.911 C229.707,410.911,229.707,410.911,229.707,410.911 C229.707,410.911,229.707,370.577,229.707,370.577 C229.707,364.675,232.659,361.724,238.561,361.724 C238.561,361.724,238.561,361.724,238.561,361.724 C238.561,361.724,306.439,361.724,306.439,361.724 C312.341,361.724,315.293,364.675,315.293,370.577 C315.293,370.577,315.293,370.577,315.293,370.577 C315.293,370.577,315.293,410.911,315.293,410.911 C315.293,416.813,312.341,419.764,306.439,419.764 C306.439,419.764,306.439,419.764,306.439,419.764Z"/>
</svg>

