<svg width="100%" height="100%" viewBox="0 0 554 725" xmlns="http://www.w3.org/2000/svg">
	<path fill="black" stroke="black" transform="translate(218,725) scale(1,-1)" d="M483.5,295.5 C528.5,340.5,551,394.833,551,458.5 C551,522.167,528.5,576.5,483.5,621.5 C438.5,666.5,384.167,689,320.5,689 C256.833,689,202.5,666.5,157.5,621.5 C112.5,576.5,90,522.167,90,458.5 C90,394.833,112.5,340.5,157.5,295.5 C202.5,250.5,256.833,228,320.5,228 C384.167,228,438.5,250.5,483.5,295.5Z M278,390 C278,390,278,532,278,532 C278,534.667,281.667,536,289,536 C296.333,536,300,534.667,300,532 C300,532,300,532,300,532 C300,532,300,400,300,400 C300,400,359,400,359,400 C361.667,400,363,397,363,391 C363,385,361.667,382,359,382 C359,382,359,382,359,382 C359,382,286,382,286,382 C280.667,382,278,384.667,278,390 C278,390,278,390,278,390Z"/>
</svg>

