<svg width="100%" height="100%" viewBox="0 0 554 725" xmlns="http://www.w3.org/2000/svg">
	<path fill="black" stroke="black" transform="translate(218,725) scale(1,-1)" d="M574,353 C574,353,202,725,202,725 C196.667,719.667,182.5,705.333,159.5,682 C136.5,658.667,118.667,640.667,106,628 C106,628,106,628,106,628 C106,628,98,617,98,617 C98,617,89,604,89,604 C89,604,82,589,82,589 C82,589,76,573,76,573 C76,573,74,556,74,556 C74,556,73,548,73,548 C73,548,73,538,73,538 C73,538,75,524,75,524 C75,524,78,516,78,516 C78,516,89,497,89,497 C89,497,347,239,347,239 C347,239,351,237,351,237 C351,237,364,230,364,230 C364,230,385,224,385,224 C385,224,396,225,396,225 C396,225,412,226,412,226 C412,226,426,230,426,230 C426,230,439,233,439,233 C451,239,460.333,244,467,248 C467,248,467,248,467,248 C467,248,477,255,477,255 C477,255,574,353,574,353Z M186,498.5 C176,508.833,171,520.667,171,534 C171,547.333,176,559,186,569 C196,579,207.833,584,221.5,584 C235.167,584,247,579,257,569 C267,559,272,547.333,272,534 C272,520.667,267,508.833,257,498.5 C247,488.167,235.167,483,221.5,483 C207.833,483,196,488.167,186,498.5Z M298.5,422.5 C293.5,427.5,291,433.5,291,440.5 C291,447.5,293.5,453.5,298.5,458.5 C303.5,463.5,309.5,466,316.5,466 C323.5,466,329.5,463.5,334.5,458.5 C339.5,453.5,342,447.5,342,440.5 C342,433.5,339.5,427.5,334.5,422.5 C329.5,417.5,323.5,415,316.5,415 C309.5,415,303.5,417.5,298.5,422.5Z M385,420.5 C379.667,425.5,377,431.5,377,438.5 C377,445.5,379.667,451.5,385,456.5 C390.333,461.5,396.333,464,403,464 C409.667,464,415.667,461.5,421,456.5 C426.333,451.5,429,445.5,429,438.5 C429,431.5,426.333,425.5,421,420.5 C415.667,415.5,409.667,413,403,413 C396.333,413,390.333,415.5,385,420.5Z M384.5,337 C379.5,342.333,377,348.333,377,355 C377,361.667,379.5,367.667,384.5,373 C389.5,378.333,395.333,381,402,381 C408.667,381,414.667,378.333,420,373 C425.333,367.667,428,361.667,428,355 C428,348.333,425.333,342.333,420,337 C414.667,331.667,408.667,329,402,329 C395.333,329,389.5,331.667,384.5,337Z M300,335.5 C294.667,340.5,292,346.5,292,353.5 C292,360.5,294.667,366.5,300,371.5 C305.333,376.5,311.333,379,318,379 C324.667,379,330.667,376.5,336,371.5 C341.333,366.5,344,360.5,344,353.5 C344,346.5,341.333,340.5,336,335.5 C330.667,330.5,324.667,328,318,328 C311.333,328,305.333,330.5,300,335.5Z"/>
</svg>

