<svg width="100%" height="100%" viewBox="0 0 554 725" xmlns="http://www.w3.org/2000/svg">
	<path fill="black" stroke="black" transform="translate(218,725) scale(1,-1)" d="M457,568 C457,568,147,568,147,568 C133,568,121,564,111,556 C101,548,96,538.333,96,527 C96,527,96,527,96,527 C96,527,96,440,96,440 C96,440,508,440,508,440 C508,440,508,527,508,527 C508,538.333,503,548,493,556 C483,564,471,568,457,568 C457,568,457,568,457,568Z M508,426 C508,426,96,426,96,426 C96,426,96,339,96,339 C96,327,101,317,111,309 C121,301,133,297,147,297 C147,297,147,297,147,297 C147,297,302,297,302,297 C302,297,368,224,368,224 C368,224,435,297,435,297 C435,297,457,297,457,297 C471,297,483,301,493,309 C503,317,508,327,508,339 C508,339,508,339,508,339 C508,339,508,426,508,426Z M119,381 C119,381,119,403,119,403 C119,403,302,403,302,403 C302,403,302,381,302,381 C302,381,119,381,119,381Z M119,351 C119,351,119,374,119,374 C119,374,302,374,302,374 C302,374,302,351,302,351 C302,351,119,351,119,351Z M119,322 C119,322,119,344,119,344 C119,344,302,344,302,344 C302,344,302,322,302,322 C302,322,119,322,119,322Z"/>
</svg>

