<svg width="100%" height="100%" viewBox="0 0 554 725" xmlns="http://www.w3.org/2000/svg">
	<path fill="black" stroke="black" transform="translate(218,725) scale(1,-1)" d="M144.207,533.647 C108.736,498.078,91,455.195,91,405 C91,354.805,108.736,311.922,144.207,276.353 C179.678,240.784,222.442,223,272.5,223 C322.558,223,365.322,240.784,400.793,276.353 C436.264,311.922,454,354.805,454,405 C454,455.195,436.264,498.078,400.793,533.647 C365.322,569.216,322.558,587,272.5,587 C222.442,587,179.678,569.216,144.207,533.647Z M204.375,393.532 C196.419,393.532,192.441,397.354,192.441,405 C192.441,412.646,196.419,416.468,204.375,416.468 C204.375,416.468,204.375,416.468,204.375,416.468 C204.375,416.468,341.619,416.468,341.619,416.468 C348.912,416.468,352.559,412.646,352.559,405 C352.559,397.354,348.912,393.532,341.619,393.532 C341.619,393.532,341.619,393.532,341.619,393.532 C341.619,393.532,204.375,393.532,204.375,393.532Z"/>
</svg>

