<svg width="100%" height="100%" viewBox="0 0 554 725" xmlns="http://www.w3.org/2000/svg">
	<path fill="black" stroke="black" transform="translate(218,725) scale(1,-1)" d="M400.878,533.531 C365.463,569.177,322.671,587,272.5,587 C222.329,587,179.537,569.177,144.122,533.531 C108.707,497.885,91,455.208,91,405.5 C91,355.792,108.707,313.115,144.122,277.469 C179.537,241.823,222.329,224,272.5,224 C322.671,224,365.463,241.823,400.878,277.469 C436.293,313.115,454,355.792,454,405.5 C454,455.208,436.293,497.885,400.878,533.531Z M259.22,417.273 C259.22,417.273,259.22,481.043,259.22,481.043 C259.22,484.968,263.81,486.93,272.992,486.93 C282.173,486.93,286.764,484.968,286.764,481.043 C286.764,481.043,286.764,481.043,286.764,481.043 C286.764,481.043,286.764,417.273,286.764,417.273 C286.764,417.273,347.756,417.273,347.756,417.273 C352.347,417.273,354.642,413.185,354.642,405.009 C354.642,396.834,352.347,392.746,347.756,392.746 C347.756,392.746,347.756,392.746,347.756,392.746 C347.756,392.746,286.764,392.746,286.764,392.746 C286.764,392.746,286.764,329.957,286.764,329.957 C286.764,326.032,282.173,324.07,272.992,324.07 C263.81,324.07,259.22,326.032,259.22,329.957 C259.22,329.957,259.22,329.957,259.22,329.957 C259.22,329.957,259.22,392.746,259.22,392.746 C259.22,392.746,197.244,392.746,197.244,392.746 C192.653,392.746,190.358,396.834,190.358,405.009 C190.358,413.185,192.653,417.273,197.244,417.273 C197.244,417.273,197.244,417.273,197.244,417.273 C197.244,417.273,259.22,417.273,259.22,417.273Z"/>
</svg>

