<svg width="100%" height="100%" viewBox="0 0 554 725" xmlns="http://www.w3.org/2000/svg">
	<path fill="black" stroke="black" transform="translate(218,725) scale(1,-1)" d="M483.5,295.5 C528.5,340.5,551,394.833,551,458.5 C551,522.167,528.5,576.5,483.5,621.5 C438.5,666.5,384.167,689,320.5,689 C256.833,689,202.5,666.5,157.5,621.5 C112.5,576.5,90,522.167,90,458.5 C90,394.833,112.5,340.5,157.5,295.5 C202.5,250.5,256.833,228,320.5,228 C384.167,228,438.5,250.5,483.5,295.5Z M266,385 C266,385,266,527,266,527 C266,532.333,268.667,535,274,535 C274,535,274,535,274,535 C274,535,309,535,309,535 C347,535,366,521.667,366,495 C366,495,366,495,366,495 C366,476.333,355.333,463.333,334,456 C334,456,334,456,334,456 C343.333,452.667,351.333,443,358,427 C358,427,358,427,358,427 C358,427,373,394,373,394 C374.333,389.333,375,386.333,375,385 C375,385,375,385,375,385 C375,382.333,371.333,381,364,381 C364,381,364,381,364,381 C357.333,381,353.333,382.667,352,386 C352,386,352,386,352,386 C352,386,337,422,337,422 C334.333,428,331.833,432.667,329.5,436 C327.167,439.333,323.667,442.5,319,445.5 C314.333,448.5,308.667,450,302,450 C302,450,302,450,302,450 C302,450,288,450,288,450 C288,450,288,385,288,385 C288,382.333,284.333,381,277,381 C269.667,381,266,382.333,266,385 C266,385,266,385,266,385Z M343,492 C343,492,343,492,343,492 C343,509.333,330.667,518,306,518 C306,518,306,518,306,518 C306,518,288,518,288,518 C288,518,288,467,288,467 C288,467,309,467,309,467 C331.667,467,343,475.333,343,492Z"/>
</svg>

