<svg width="100%" height="100%" viewBox="0 0 554 725" xmlns="http://www.w3.org/2000/svg">
	<path fill="black" stroke="black" transform="translate(218,725) scale(1,-1)" d="M400.878,527.878 C365.463,563.293,322.671,581,272.5,581 C222.329,581,179.537,563.293,144.122,527.878 C108.707,492.463,91,449.671,91,399.5 C91,349.329,108.707,306.537,144.122,271.122 C179.537,235.707,222.329,218,272.5,218 C322.671,218,365.463,235.707,400.878,271.122 C436.293,306.537,454,349.329,454,399.5 C454,449.671,436.293,492.463,400.878,527.878Z M151.008,399.992 C151.008,399.992,347.756,498.366,347.756,498.366 C347.756,498.366,347.756,301.618,347.756,301.618 C347.756,301.618,151.008,399.992,151.008,399.992Z"/>
</svg>

