<svg width="100%" height="100%" viewBox="0 0 554 725" xmlns="http://www.w3.org/2000/svg">
	<path fill="black" stroke="black" transform="translate(218,725) scale(1,-1)" d="M400.878,277.469 C436.293,313.115,454,355.792,454,405.5 C454,455.208,436.293,497.885,400.878,533.531 C365.463,569.177,322.671,587,272.5,587 C222.329,587,179.537,569.177,144.122,533.531 C108.707,497.885,91,455.208,91,405.5 C91,355.792,108.707,313.115,144.122,277.469 C179.537,241.823,222.329,224,272.5,224 C322.671,224,365.463,241.823,400.878,277.469Z M225.772,481.043 C225.772,481.043,225.772,481.043,225.772,481.043 C232.331,481.043,236.593,480.062,238.561,478.1 C238.561,478.1,238.561,478.1,238.561,478.1 C238.561,478.1,273.976,421.197,273.976,421.197 C273.976,421.197,308.407,478.1,308.407,478.1 C309.718,480.062,313.653,481.043,320.211,481.043 C320.211,481.043,320.211,481.043,320.211,481.043 C324.802,481.043,327.753,480.716,329.065,480.062 C330.377,479.408,330.377,477.119,329.065,473.195 C329.065,473.195,329.065,473.195,329.065,473.195 C329.065,473.195,286.764,407.462,286.764,407.462 C286.764,407.462,331.033,337.805,331.033,337.805 C332.344,333.881,332.18,331.592,330.541,330.938 C328.901,330.284,325.786,329.957,321.195,329.957 C321.195,329.957,321.195,329.957,321.195,329.957 C313.981,329.957,309.718,331.265,308.407,333.881 C308.407,333.881,308.407,333.881,308.407,333.881 C308.407,333.881,272.008,392.746,272.008,392.746 C272.008,392.746,235.61,333.881,235.61,333.881 C234.298,331.265,230.035,329.957,222.821,329.957 C222.821,329.957,222.821,329.957,222.821,329.957 C218.23,329.957,215.279,330.284,213.967,330.938 C212.656,331.592,212.984,333.881,214.951,337.805 C214.951,337.805,214.951,337.805,214.951,337.805 C214.951,337.805,258.236,406.481,258.236,406.481 C258.236,406.481,216.919,473.195,216.919,473.195 C214.951,477.119,214.623,479.408,215.935,480.062 C217.247,480.716,220.526,481.043,225.772,481.043Z"/>
</svg>

