<svg width="100%" height="100%" viewBox="0 0 554 725" xmlns="http://www.w3.org/2000/svg">
	<path fill="black" stroke="black" transform="translate(218,725) scale(1,-1)" d="M144.122,277.469 C179.537,241.823,222.329,224,272.5,224 C322.671,224,365.463,241.823,400.878,277.469 C436.293,313.115,454,355.792,454,405.5 C454,455.208,436.293,497.885,400.878,533.531 C365.463,569.177,322.671,587,272.5,587 C222.329,587,179.537,569.177,144.122,533.531 C108.707,497.885,91,455.208,91,405.5 C91,355.792,108.707,313.115,144.122,277.469Z M278.894,333.881 C278.894,331.265,275.451,329.957,268.565,329.957 C261.679,329.957,258.236,331.265,258.236,333.881 C258.236,333.881,258.236,333.881,258.236,333.881 C258.236,333.881,258.236,388.822,258.236,388.822 C258.236,388.822,212,473.195,212,473.195 C210.688,477.119,210.688,479.408,212,480.062 C213.312,480.716,216.263,481.043,220.854,481.043 C220.854,481.043,220.854,481.043,220.854,481.043 C228.068,481.043,232.331,479.735,233.642,477.119 C233.642,477.119,233.642,477.119,233.642,477.119 C233.642,477.119,256.268,433.951,256.268,433.951 C256.924,432.643,261.187,423.814,269.057,407.462 C269.057,407.462,269.057,407.462,269.057,407.462 C272.336,415.311,276.599,424.141,281.846,433.951 C281.846,433.951,281.846,433.951,281.846,433.951 C281.846,433.951,303.488,477.119,303.488,477.119 C304.799,479.735,308.734,481.043,315.293,481.043 C315.293,481.043,315.293,481.043,315.293,481.043 C317.916,481.043,319.72,481.043,320.703,481.043 C321.687,481.043,322.999,480.716,324.638,480.062 C326.278,479.408,326.934,478.591,326.606,477.609 C326.278,476.628,325.786,475.157,325.13,473.195 C325.13,473.195,325.13,473.195,325.13,473.195 C325.13,473.195,278.894,388.822,278.894,388.822 C278.894,388.822,278.894,333.881,278.894,333.881Z"/>
</svg>

