<svg width="100%" height="100%" viewBox="0 0 554 725" xmlns="http://www.w3.org/2000/svg">
	<path fill="black" stroke="black" transform="translate(224,725) scale(1,-1)" d="M397.927,530.435 C432.686,496.004,450.065,454.359,450.065,405.5 C450.065,356.641,432.686,314.832,397.927,280.073 C363.168,245.314,321.359,227.935,272.5,227.935 C223.641,227.935,181.996,245.314,147.565,280.073 C113.134,314.832,95.919,356.641,95.919,405.5 C95.919,454.359,113.134,496.004,147.565,530.435 C181.996,564.866,223.641,582.081,272.5,582.081 C321.359,582.081,363.168,564.866,397.927,530.435Z M400.878,277.122 C436.293,312.537,454,355.329,454,405.5 C454,455.671,436.293,498.463,400.878,533.878 C365.463,569.293,322.671,587,272.5,587 C222.329,587,179.537,569.293,144.122,533.878 C108.707,498.463,91,455.671,91,405.5 C91,355.329,108.707,312.537,144.122,277.122 C179.537,241.707,222.329,224,272.5,224 C322.671,224,365.463,241.707,400.878,277.122Z M227.74,338.114 C227.74,338.114,227.74,471.902,227.74,471.902 C227.74,477.805,230.363,480.756,235.61,480.756 C235.61,480.756,235.61,480.756,235.61,480.756 C235.61,480.756,272.992,480.756,272.992,480.756 C307.095,480.756,324.146,467.967,324.146,442.39 C324.146,442.39,324.146,442.39,324.146,442.39 C324.146,426.65,316.932,415.829,302.504,409.927 C302.504,409.927,302.504,409.927,302.504,409.927 C311.686,408.615,319.228,404.68,325.13,398.122 C331.033,391.564,333.984,383.366,333.984,373.528 C333.984,373.528,333.984,373.528,333.984,373.528 C333.984,358.444,328.901,347.459,318.736,340.573 C308.57,333.687,294.962,330.244,277.911,330.244 C277.911,330.244,277.911,330.244,277.911,330.244 C277.911,330.244,235.61,330.244,235.61,330.244 C230.363,330.244,227.74,332.867,227.74,338.114 C227.74,338.114,227.74,338.114,227.74,338.114Z M301.52,440.423 C301.52,440.423,301.52,440.423,301.52,440.423 C301.52,456.163,291.355,464.033,271.024,464.033 C271.024,464.033,271.024,464.033,271.024,464.033 C271.024,464.033,249.382,464.033,249.382,464.033 C249.382,464.033,249.382,415.829,249.382,415.829 C249.382,415.829,273.976,415.829,273.976,415.829 C292.339,415.829,301.52,424.027,301.52,440.423Z M311.358,371.561 C311.358,371.561,311.358,371.561,311.358,371.561 C311.358,389.924,299.225,399.106,274.959,399.106 C274.959,399.106,274.959,399.106,274.959,399.106 C274.959,399.106,249.382,399.106,249.382,399.106 C249.382,399.106,249.382,346.967,249.382,346.967 C249.382,346.967,279.878,346.967,279.878,346.967 C300.864,346.967,311.358,355.165,311.358,371.561Z"/>
</svg>

