<svg width="100%" height="100%" viewBox="0 0 554 725" xmlns="http://www.w3.org/2000/svg">
	<path fill="black" stroke="black" transform="translate(224,725) scale(1,-1)" d="M392.253,421.405 C392.253,421.405,272.5,533.673,272.5,533.673 C272.5,533.673,152.747,421.405,152.747,421.405 C152.747,421.405,178.943,421.405,178.943,421.405 C178.943,421.405,178.943,311.008,178.943,311.008 C178.943,311.008,366.057,311.008,366.057,311.008 C366.057,311.008,366.057,421.405,366.057,421.405 C366.057,421.405,392.253,421.405,392.253,421.405Z M240.691,420.469 C240.691,420.469,240.691,420.469,240.691,420.469 C240.691,420.469,304.309,420.469,304.309,420.469 C309.923,420.469,312.729,417.662,312.729,412.049 C312.729,412.049,312.729,412.049,312.729,412.049 C312.729,412.049,312.729,373.691,312.729,373.691 C312.729,368.077,309.923,365.271,304.309,365.271 C304.309,365.271,304.309,365.271,304.309,365.271 C304.309,365.271,240.691,365.271,240.691,365.271 C234.454,365.271,231.335,368.077,231.335,373.691 C231.335,373.691,231.335,373.691,231.335,373.691 C231.335,373.691,231.335,412.049,231.335,412.049 C231.335,417.662,234.454,420.469,240.691,420.469Z M400.673,533.673 C365.121,569.224,322.397,587,272.5,587 C222.603,587,179.879,569.224,144.327,533.673 C108.776,498.121,91,455.397,91,405.5 C91,355.603,108.776,312.879,144.327,277.327 C179.879,241.776,222.603,224,272.5,224 C322.397,224,365.121,241.776,400.673,277.327 C436.224,312.879,454,355.603,454,405.5 C454,455.397,436.224,498.121,400.673,533.673Z M162.103,515.897 C192.665,546.459,229.464,561.74,272.5,561.74 C315.536,561.74,352.335,546.459,382.897,515.897 C413.459,485.335,428.74,448.536,428.74,405.5 C428.74,362.464,413.459,325.821,382.897,295.571 C352.335,265.321,315.536,250.196,272.5,250.196 C229.464,250.196,192.665,265.321,162.103,295.571 C131.541,325.821,116.26,362.464,116.26,405.5 C116.26,448.536,131.541,485.335,162.103,515.897Z"/>
</svg>

