<svg width="100%" height="100%" viewBox="0 0 554 725" xmlns="http://www.w3.org/2000/svg">
	<path fill="black" stroke="black" transform="translate(0,725) scale(1,-1)" d="M480,617.156 C524,573.251,546,520.366,546,458.5 C546,396.634,524,343.749,480,299.844 C436,255.939,383,233.987,321,233.987 C259,233.987,206,255.939,162,299.844 C118,343.749,96,396.634,96,458.5 C96,520.366,118,573.251,162,617.156 C206,661.061,259,683.013,321,683.013 C383,683.013,436,661.061,480,617.156Z M483.5,295.354 C528.5,340.256,551,394.472,551,458.001 C551,521.53,528.5,575.912,483.5,621.147 C438.5,666.382,384.167,689,320.5,689 C256.833,689,202.5,666.382,157.5,621.147 C112.5,575.912,90,521.53,90,458.001 C90,394.472,112.5,340.256,157.5,295.354 C202.5,250.451,256.833,228,320.5,228 C384.167,228,438.5,250.451,483.5,295.354Z M278,389.649 C278,389.649,278,531.342,278,531.342 C278,534.003,281.667,535.333,289,535.333 C296.333,535.333,300,534.003,300,531.342 C300,531.342,300,531.342,300,531.342 C300,531.342,300,399.628,300,399.628 C300,399.628,359,399.628,359,399.628 C361.667,399.628,363,396.634,363,390.647 C363,384.66,361.667,381.667,359,381.667 C359,381.667,359,381.667,359,381.667 C359,381.667,286,381.667,286,381.667 C280.667,381.667,278,384.328,278,389.649 C278,389.649,278,389.649,278,389.649Z"/>
</svg>

