<svg width="100%" height="100%" viewBox="53 224 474 725" xmlns="http://www.w3.org/2000/svg">
	<path fill="black" stroke="black" transform="translate(224,725) scale(1,-1)" d="M398,530.157 C432.667,495.585,450,453.867,450,405.001 C450,356.136,432.667,314.418,398,279.846 C363.333,245.275,321.5,227.989,272.5,227.989 C223.5,227.989,181.667,245.275,147,279.846 C112.333,314.418,95,356.136,95,405.001 C95,453.867,112.333,495.585,147,530.157 C181.667,564.728,223.5,582.014,272.5,582.014 C321.5,582.014,363.333,564.728,398,530.157Z M144,533.647 C108.667,498.078,91,455.363,91,405.5 C91,355.637,108.667,312.922,144,277.353 C179.333,241.784,222.167,224,272.5,224 C322.833,224,365.667,241.784,401,277.353 C436.333,312.922,454,355.637,454,405.5 C454,455.363,436.333,498.078,401,533.647 C365.667,569.216,322.833,587,272.5,587 C222.167,587,179.333,569.216,144,533.647Z M212,328.712 C212,328.712,212,328.712,212,328.712 C205.333,328.712,202,329.709,202,331.703 C202,331.703,202,331.703,202,331.703 C202,333.033,202.333,334.695,203,336.69 C203,336.69,203,336.69,203,336.69 C203,336.69,258,478.299,258,478.299 C259.333,480.959,264,482.288,272,482.288 C272,482.288,272,482.288,272,482.288 C281.333,482.288,286.333,480.959,287,478.299 C287,478.299,287,478.299,287,478.299 C287,478.299,342,336.69,342,336.69 C342.667,334.695,343,333.033,343,331.703 C343,331.703,343,331.703,343,331.703 C343.667,329.709,340.333,328.712,333,328.712 C325.667,328.712,321.333,329.709,320,331.703 C320,331.703,320,331.703,320,331.703 C320,331.703,306,369.599,306,369.599 C306,369.599,238,369.599,238,369.599 C238,369.599,224,332.701,224,332.701 C223.333,330.041,219.333,328.712,212,328.712Z M300,385.555 C300,385.555,272,461.346,272,461.346 C272,461.346,243,385.555,243,385.555 C243,385.555,300,385.555,300,385.555Z"/>
</svg>

