<svg width="100%" height="100%" viewBox="0 0 554 725" xmlns="http://www.w3.org/2000/svg">
	<path fill="black" stroke="black" transform="translate(0,725) scale(1,-1)" d="M302,406 C302,406,128,406,128,406 C128,406,128,385,128,385 C128,385,302,385,302,385 C302,385,302,406,302,406Z M302,378 C302,378,128,378,128,378 C128,378,128,357,128,357 C128,357,302,357,302,357 C302,357,302,378,302,378Z M302,351 C302,351,128,351,128,351 C128,351,128,330,128,330 C128,330,302,330,302,330 C302,330,302,351,302,351Z M464,568 C464,568,139,568,139,568 C127,568,116.833,563.833,108.5,555.5 C100.167,547.167,96,537.333,96,526 C96,526,96,526,96,526 C96,526,96,340,96,340 C96,328,100.167,317.833,108.5,309.5 C116.833,301.167,127,297,139,297 C139,297,139,297,139,297 C139,297,295,297,295,297 C295,297,365,224,365,224 C365,224,436,297,436,297 C436,297,464,297,464,297 C476,297,486.333,301.167,495,309.5 C503.667,317.833,508,328,508,340 C508,340,508,340,508,340 C508,340,508,526,508,526 C508,537.333,503.667,547.167,495,555.5 C486.333,563.833,476,568,464,568 C464,568,464,568,464,568Z M155,559 C155,559,155,559,155,559 C155,559,449,559,449,559 C463,559,474.667,555.167,484,547.5 C493.333,539.833,498,530.667,498,520 C498,520,498,520,498,520 C498,520,498,440,498,440 C498,440,106,440,106,440 C106,440,106,520,106,520 C106,530.667,110.833,539.833,120.5,547.5 C130.167,555.167,141.667,559,155,559Z M106,346 C106,346,106,427,106,427 C106,427,498,427,498,427 C498,427,498,346,498,346 C498,335.333,493.333,326.333,484,319 C474.667,311.667,463,308,449,308 C449,308,449,308,449,308 C449,308,429,308,429,308 C429,308,365,240,365,240 C365,240,302,308,302,308 C302,308,155,308,155,308 C141.667,308,130.167,311.667,120.5,319 C110.833,326.333,106,335.333,106,346 C106,346,106,346,106,346Z"/>
</svg>

