<svg width="100%" height="100%" viewBox="0 0 554 725" xmlns="http://www.w3.org/2000/svg">
	<path fill="black" stroke="black" transform="translate(0,725) scale(1,-1)" d="M399.301,532.301 C434.441,497.162,452.011,454.895,452.011,405.5 C452.011,356.105,434.441,314.004,399.301,279.196 C364.162,244.388,321.895,226.984,272.5,226.984 C223.105,226.984,181.004,244.388,146.196,279.196 C111.388,314.004,93.984,356.105,93.984,405.5 C93.984,454.895,111.388,497.162,146.196,532.301 C181.004,567.441,223.105,585.011,272.5,585.011 C321.895,585.011,364.162,567.441,399.301,532.301Z M144.207,533.793 C108.736,498.322,91,455.558,91,405.5 C91,355.442,108.736,312.678,144.207,277.207 C179.678,241.736,222.442,224,272.5,224 C322.558,224,365.322,241.736,400.793,277.207 C436.264,312.678,454,355.442,454,405.5 C454,455.558,436.264,498.322,400.793,533.793 C365.322,569.264,322.558,587,272.5,587 C222.442,587,179.678,569.264,144.207,533.793Z M204.375,394.063 C196.419,394.063,192.441,397.875,192.441,405.5 C192.441,413.125,196.419,416.937,204.375,416.937 C204.375,416.937,204.375,416.937,204.375,416.937 C204.375,416.937,341.619,416.937,341.619,416.937 C348.912,416.937,352.559,413.125,352.559,405.5 C352.559,397.875,348.912,394.063,341.619,394.063 C341.619,394.063,341.619,394.063,341.619,394.063 C341.619,394.063,204.375,394.063,204.375,394.063Z"/>
</svg>

