<svg width="100%" height="100%" viewBox="0 0 554 725" xmlns="http://www.w3.org/2000/svg">
	<path fill="black" stroke="black" transform="translate(0,725) scale(1,-1)" d="M344,599 C344,599,219,599,219,599 C219,599,219,474,219,474 C219,474,94,474,94,474 C94,474,94,349,94,349 C94,349,219,349,219,349 C219,349,219,224,219,224 C219,224,344,224,344,224 C344,224,344,349,344,349 C344,349,469,349,469,349 C469,349,469,474,469,474 C469,474,344,474,344,474 C344,474,344,599,344,599Z M226,591 C226,591,336,591,336,591 C336,591,336,466,336,466 C336,466,462,466,462,466 C462,466,462,356,462,356 C462,356,336,356,336,356 C336,356,336,231,336,231 C336,231,226,231,226,231 C226,231,226,356,226,356 C226,356,102,356,102,356 C102,356,102,466,102,466 C102,466,226,466,226,466 C226,466,226,591,226,591Z"/>
</svg>

