<svg width="100%" height="100%" viewBox="0 0 554 725" xmlns="http://www.w3.org/2000/svg">
	<path fill="black" stroke="black" transform="translate(0,725) scale(1,-1)" d="M397.927,530.927 C432.686,496.168,450.065,454.359,450.065,405.5 C450.065,356.641,432.686,314.996,397.927,280.565 C363.168,246.134,321.359,228.919,272.5,228.919 C223.641,228.919,181.996,246.134,147.565,280.565 C113.134,314.996,95.919,356.641,95.919,405.5 C95.919,454.359,113.134,496.168,147.565,530.927 C181.996,565.686,223.641,583.065,272.5,583.065 C321.359,583.065,363.168,565.686,397.927,530.927Z M400.878,533.878 C365.463,569.293,322.671,587,272.5,587 C222.329,587,179.537,569.293,144.122,533.878 C108.707,498.463,91,455.671,91,405.5 C91,355.329,108.707,312.537,144.122,277.122 C179.537,241.707,222.329,224,272.5,224 C322.671,224,365.463,241.707,400.878,277.122 C436.293,312.537,454,355.329,454,405.5 C454,455.671,436.293,498.463,400.878,533.878Z M259.22,417.797 C259.22,417.797,259.22,480.756,259.22,480.756 C259.22,485.347,263.81,487.642,272.992,487.642 C282.173,487.642,286.764,485.347,286.764,480.756 C286.764,480.756,286.764,480.756,286.764,480.756 C286.764,480.756,286.764,417.797,286.764,417.797 C286.764,417.797,347.756,417.797,347.756,417.797 C352.347,417.797,354.642,413.698,354.642,405.5 C354.642,397.302,352.347,393.203,347.756,393.203 C347.756,393.203,347.756,393.203,347.756,393.203 C347.756,393.203,286.764,393.203,286.764,393.203 C286.764,393.203,286.764,329.26,286.764,329.26 C286.764,325.325,282.173,323.358,272.992,323.358 C263.81,323.358,259.22,325.325,259.22,329.26 C259.22,329.26,259.22,329.26,259.22,329.26 C259.22,329.26,259.22,393.203,259.22,393.203 C259.22,393.203,197.244,393.203,197.244,393.203 C192.653,393.203,190.358,397.302,190.358,405.5 C190.358,413.698,192.653,417.797,197.244,417.797 C197.244,417.797,197.244,417.797,197.244,417.797 C197.244,417.797,259.22,417.797,259.22,417.797Z"/>
</svg>

