<svg width="100%" height="100%" viewBox="0 0 554 725" xmlns="http://www.w3.org/2000/svg">
	<path fill="black" stroke="black" transform="translate(224,725) scale(1,-1)" d="M483.5,295.853 C528.5,341.088,551,395.47,551,458.999 C551,522.528,528.5,576.744,483.5,621.646 C438.5,666.549,384.167,689,320.5,689 C256.833,689,202.5,666.549,157.5,621.646 C112.5,576.744,90,522.528,90,458.999 C90,395.47,112.5,341.088,157.5,295.853 C202.5,250.618,256.833,228,320.5,228 C384.167,228,438.5,250.618,483.5,295.853Z M266,384.66 C266,384.66,266,526.353,266,526.353 C266,531.675,268.667,534.335,274,534.335 C274,534.335,274,534.335,274,534.335 C274,534.335,309,534.335,309,534.335 C347,534.335,366,521.031,366,494.422 C366,494.422,366,494.422,366,494.422 C366,475.796,355.333,463.157,334,456.504 C334,456.504,334,456.504,334,456.504 C343.333,452.513,351.333,442.867,358,427.567 C358,427.567,358,427.567,358,427.567 C358,427.567,373,393.641,373,393.641 C374.333,388.984,375,385.991,375,384.66 C375,384.66,375,384.66,375,384.66 C375,382.665,371.333,381.667,364,381.667 C364,381.667,364,381.667,364,381.667 C357.333,381.667,353.333,383.33,352,386.656 C352,386.656,352,386.656,352,386.656 C352,386.656,337,422.578,337,422.578 C334.333,428.565,331.833,433.222,329.5,436.548 C327.167,439.874,323.667,443.034,319,446.027 C314.333,449.021,308.667,450.517,302,450.517 C302,450.517,302,450.517,302,450.517 C302,450.517,288,450.517,288,450.517 C288,450.517,288,384.66,288,384.66 C288,382.665,284.333,381.667,277,381.667 C269.667,381.667,266,382.665,266,384.66 C266,384.66,266,384.66,266,384.66Z M343,492.426 C343,492.426,343,492.426,343,492.426 C343,509.722,330.667,518.37,306,518.37 C306,518.37,306,518.37,306,518.37 C306,518.37,288,518.37,288,518.37 C288,518.37,288,466.483,288,466.483 C288,466.483,309,466.483,309,466.483 C331.667,466.483,343,475.131,343,492.426Z M480,617.156 C524,573.251,546,520.366,546,458.5 C546,396.634,524,343.749,480,299.844 C436,255.939,383,233.987,321,233.987 C259,233.987,206,255.939,162,299.844 C118,343.749,96,396.634,96,458.5 C96,520.366,118,573.251,162,617.156 C206,661.061,259,683.013,321,683.013 C383,683.013,436,661.061,480,617.156Z"/>
</svg>

