<svg width="100%" height="100%" viewBox="0 0 554 725" xmlns="http://www.w3.org/2000/svg">
	<path fill="black" stroke="black" transform="translate(0,725) scale(1,-1)" d="M80.014,353 C80.014,353,444.742,718,444.742,718 C444.742,718,538.93,624,538.93,624 C538.93,624,545.944,615,545.944,615 C545.944,615,549.952,608,549.952,608 C552.624,604,555.964,597.333,559.972,588 C559.972,588,559.972,588,559.972,588 C559.972,588,563.98,575,563.98,575 C563.98,575,566.986,562,566.986,562 C566.986,562,567.988,546,567.988,546 C567.988,546,567.988,536,567.988,536 C567.988,536,562.978,515,562.978,515 C562.978,515,555.964,502,555.964,502 C523.232,468.667,476.305,421.667,415.183,361 C354.061,300.333,315.818,262,300.454,246 C300.454,246,300.454,246,300.454,246 C300.454,246,282.418,235,282.418,235 C282.418,235,273.4,232,273.4,232 C273.4,232,260.374,230,260.374,230 C260.374,230,250.354,230,250.354,230 C250.354,230,243.34,230,243.34,230 C243.34,230,226.306,233,226.306,233 C226.306,233,210.274,238,210.274,238 C210.274,238,196.246,245,196.246,245 C196.246,245,183.22,253,183.22,253 C183.22,253,173.2,261,173.2,261 C161.176,273,143.975,290,121.597,312 C99.219,334,85.358,347.667,80.014,353 C80.014,353,80.014,353,80.014,353Z M542.938,628 C542.938,628,445.744,725,445.744,725 C445.744,725,73,353,73,353 C78.344,347.667,92.706,333.5,116.086,310.5 C139.466,287.5,157.502,269.667,170.194,257 C170.194,257,170.194,257,170.194,257 C170.194,257,181.216,248,181.216,248 C181.216,248,194.242,240,194.242,240 C194.242,240,209.272,233,209.272,233 C209.272,233,225.304,227,225.304,227 C225.304,227,242.338,224,242.338,224 C242.338,224,250.354,224,250.354,224 C250.354,224,260.374,224,260.374,224 C260.374,224,273.4,226,273.4,226 C273.4,226,282.418,229,282.418,229 C282.418,229,300.454,240,300.454,240 C300.454,240,559.972,498,559.972,498 C559.972,498,561.976,502,561.976,502 C561.976,502,568.99,515,568.99,515 C568.99,515,574,536,574,536 C574,536,574,546,574,546 C574,546,572.998,563,572.998,563 C572.998,563,568.99,577,568.99,577 C568.99,577,564.982,590,564.982,590 C559.638,602,554.962,611.333,550.954,618 C550.954,618,550.954,618,550.954,618 C550.954,618,542.938,628,542.938,628Z M341.536,572 C346.88,577.333,352.892,580,359.572,580 C366.252,580,372.264,577.333,377.608,572 C382.952,566.667,385.624,560.667,385.624,554 C385.624,547.333,382.952,541.333,377.608,536 C372.264,530.667,366.252,528,359.572,528 C352.892,528,346.88,530.667,341.536,536 C336.192,541.333,333.52,547.333,333.52,554 C333.52,560.667,336.192,566.667,341.536,572Z M426.205,570.5 C431.215,575.5,437.06,578,443.74,578 C450.42,578,456.432,575.5,461.776,570.5 C467.12,565.5,469.792,559.5,469.792,552.5 C469.792,545.5,467.12,539.5,461.776,534.5 C456.432,529.5,450.42,527,443.74,527 C437.06,527,431.215,529.5,426.205,534.5 C421.195,539.5,418.69,545.5,418.69,552.5 C418.69,559.5,421.195,565.5,426.205,570.5Z M426.706,486.5 C432.05,491.5,438.062,494,444.742,494 C451.422,494,457.434,491.5,462.778,486.5 C468.122,481.5,470.794,475.5,470.794,468.5 C470.794,461.5,468.122,455.5,462.778,450.5 C457.434,445.5,451.422,443,444.742,443 C438.062,443,432.05,445.5,426.706,450.5 C421.362,455.5,418.69,461.5,418.69,468.5 C418.69,475.5,421.362,481.5,426.706,486.5Z M340.033,485 C345.043,490.333,351.055,493,358.069,493 C365.083,493,371.095,490.333,376.105,485 C381.115,479.667,383.62,473.667,383.62,467 C383.62,460.333,381.115,454.333,376.105,449 C371.095,443.667,365.083,441,358.069,441 C351.055,441,345.043,443.667,340.033,449 C335.023,454.333,332.518,460.333,332.518,467 C332.518,473.667,335.023,479.667,340.033,485Z M227.308,409 C237.328,419,249.185,424,262.879,424 C276.573,424,288.43,419,298.45,409 C308.47,399,313.48,387.167,313.48,373.5 C313.48,359.833,308.47,348,298.45,338 C288.43,328,276.573,323,262.879,323 C249.185,323,237.328,328,227.308,338 C217.288,348,212.278,359.833,212.278,373.5 C212.278,387.167,217.288,399,227.308,409Z"/>
</svg>

