<svg width="100%" height="100%" viewBox="0 0 554 725" xmlns="http://www.w3.org/2000/svg">
	<path fill="black" stroke="black" transform="translate(224,725) scale(1,-1)" d="M203,717.986 C203,717.986,567,353.258,567,353.258 C567,353.258,474,259.07,474,259.07 C474,259.07,464,252.056,464,252.056 C464,252.056,458,248.048,458,248.048 C453.333,245.376,446.333,242.036,437,238.028 C437,238.028,437,238.028,437,238.028 C437,238.028,424,234.02,424,234.02 C424,234.02,411,231.014,411,231.014 C411,231.014,395,230.012,395,230.012 C395,230.012,385,230.012,385,230.012 C385,230.012,364,235.022,364,235.022 C364,235.022,351,242.036,351,242.036 C317.667,274.768,270.667,321.695,210,382.817 C149.333,443.939,111,482.516,95,498.548 C95,498.548,95,498.548,95,498.548 C95,498.548,84,516.584,84,516.584 C84,516.584,81,524.6,81,524.6 C81,524.6,79,537.626,79,537.626 C79,537.626,79,547.646,79,547.646 C79,547.646,79,555.662,79,555.662 C79,555.662,82,571.694,82,571.694 C82,571.694,87,587.726,87,587.726 C87,587.726,94,601.754,94,601.754 C94,601.754,102,614.78,102,614.78 C102,614.78,110,624.8,110,624.8 C122,636.824,139,654.025,161,676.403 C183,698.781,197,712.642,203,717.986 C203,717.986,203,717.986,203,717.986Z M574,352.256 C574,352.256,202,725,202,725 C196.667,719.656,182.5,705.461,159.5,682.415 C136.5,659.369,118.667,641.5,106,628.808 C106,628.808,106,628.808,106,628.808 C106,628.808,98,617.786,98,617.786 C98,617.786,89,603.758,89,603.758 C89,603.758,82,589.73,82,589.73 C82,589.73,76,572.696,76,572.696 C76,572.696,74,555.662,74,555.662 C74,555.662,73,548.648,73,548.648 C73,548.648,73,537.626,73,537.626 C73,537.626,75,524.6,75,524.6 C75,524.6,78,515.582,78,515.582 C78,515.582,89,497.546,89,497.546 C89,497.546,347,238.028,347,238.028 C347,238.028,351,236.024,351,236.024 C351,236.024,364,229.01,364,229.01 C364,229.01,385,224,385,224 C385,224,396,224,396,224 C396,224,412,226.004,412,226.004 C412,226.004,426,229.01,426,229.01 C426,229.01,439,233.018,439,233.018 C451,238.362,460.333,243.038,467,247.046 C467,247.046,467,247.046,467,247.046 C467,247.046,477,255.062,477,255.062 C477,255.062,574,352.256,574,352.256Z M186,498.548 C176,508.568,171,520.425,171,534.119 C171,547.813,176,559.67,186,569.69 C196,579.71,207.833,584.72,221.5,584.72 C235.167,584.72,247,579.71,257,569.69 C267,559.67,272,547.813,272,534.119 C272,520.425,267,508.568,257,498.548 C247,488.528,235.167,483.518,221.5,483.518 C207.833,483.518,196,488.528,186,498.548Z M298.5,422.396 C293.5,427.74,291,433.752,291,440.432 C291,447.112,293.5,453.124,298.5,458.468 C303.5,463.812,309.5,466.484,316.5,466.484 C323.5,466.484,329.5,463.812,334.5,458.468 C339.5,453.124,342,447.112,342,440.432 C342,433.752,339.5,427.74,334.5,422.396 C329.5,417.052,323.5,414.38,316.5,414.38 C309.5,414.38,303.5,417.052,298.5,422.396Z M385,420.893 C379.667,425.903,377,431.915,377,438.929 C377,445.943,379.667,451.955,385,456.965 C390.333,461.975,396.333,464.48,403,464.48 C409.667,464.48,415.667,461.975,421,456.965 C426.333,451.955,429,445.943,429,438.929 C429,431.915,426.333,425.903,421,420.893 C415.667,415.883,409.667,413.378,403,413.378 C396.333,413.378,390.333,415.883,385,420.893Z M384.5,336.725 C379.5,341.735,377,347.747,377,354.761 C377,361.775,379.5,367.787,384.5,372.797 C389.5,377.807,395.333,380.312,402,380.312 C408.667,380.312,414.667,377.807,420,372.797 C425.333,367.787,428,361.775,428,354.761 C428,347.747,425.333,341.735,420,336.725 C414.667,331.715,408.667,329.21,402,329.21 C395.333,329.21,389.5,331.715,384.5,336.725Z M300,335.222 C294.667,340.566,292,346.578,292,353.258 C292,359.938,294.667,365.95,300,371.294 C305.333,376.638,311.333,379.31,318,379.31 C324.667,379.31,330.667,376.638,336,371.294 C341.333,365.95,344,359.938,344,353.258 C344,346.578,341.333,340.566,336,335.222 C330.667,329.878,324.667,327.206,318,327.206 C311.333,327.206,305.333,329.878,300,335.222Z"/>
</svg>

