<svg width="100%" height="100%" viewBox="0 0 554 725" xmlns="http://www.w3.org/2000/svg">
	<path fill="black" stroke="black" transform="translate(0,725) scale(1,-1)" d="M147.565,530.435 C181.996,564.866,223.641,582.081,272.5,582.081 C321.359,582.081,363.168,564.866,397.927,530.435 C432.686,496.004,450.065,454.359,450.065,405.5 C450.065,356.641,432.686,314.832,397.927,280.073 C363.168,245.314,321.359,227.935,272.5,227.935 C223.641,227.935,181.996,245.314,147.565,280.073 C113.134,314.832,95.919,356.641,95.919,405.5 C95.919,454.359,113.134,496.004,147.565,530.435Z M400.878,277.122 C436.293,312.537,454,355.329,454,405.5 C454,455.671,436.293,498.463,400.878,533.878 C365.463,569.293,322.671,587,272.5,587 C222.329,587,179.537,569.293,144.122,533.878 C108.707,498.463,91,455.671,91,405.5 C91,355.329,108.707,312.537,144.122,277.122 C179.537,241.707,222.329,224,272.5,224 C322.671,224,365.463,241.707,400.878,277.122Z M272.992,526.992 C272.992,526.992,371.366,330.244,371.366,330.244 C371.366,330.244,174.618,330.244,174.618,330.244 C174.618,330.244,272.992,526.992,272.992,526.992Z"/>
</svg>

