<svg width="100%" height="100%" viewBox="0 0 554 725" xmlns="http://www.w3.org/2000/svg">
	<path fill="black" stroke="black" transform="translate(224,725) scale(1,-1)" d="M397.927,530.435 C432.686,496.004,450.065,454.359,450.065,405.5 C450.065,356.641,432.686,314.832,397.927,280.073 C363.168,245.314,321.359,227.935,272.5,227.935 C223.641,227.935,181.996,245.314,147.565,280.073 C113.134,314.832,95.919,356.641,95.919,405.5 C95.919,454.359,113.134,496.004,147.565,530.435 C181.996,564.866,223.641,582.081,272.5,582.081 C321.359,582.081,363.168,564.866,397.927,530.435Z M400.878,277.122 C436.293,312.537,454,355.329,454,405.5 C454,455.671,436.293,498.463,400.878,533.878 C365.463,569.293,322.671,587,272.5,587 C222.329,587,179.537,569.293,144.122,533.878 C108.707,498.463,91,455.671,91,405.5 C91,355.329,108.707,312.537,144.122,277.122 C179.537,241.707,222.329,224,272.5,224 C322.671,224,365.463,241.707,400.878,277.122Z M225.772,480.756 C225.772,480.756,225.772,480.756,225.772,480.756 C232.331,480.756,236.593,479.772,238.561,477.805 C238.561,477.805,238.561,477.805,238.561,477.805 C238.561,477.805,273.976,420.748,273.976,420.748 C273.976,420.748,308.407,477.805,308.407,477.805 C309.718,479.772,313.653,480.756,320.211,480.756 C320.211,480.756,320.211,480.756,320.211,480.756 C324.802,480.756,327.753,480.428,329.065,479.772 C330.377,479.117,330.377,476.821,329.065,472.886 C329.065,472.886,329.065,472.886,329.065,472.886 C329.065,472.886,286.764,406.976,286.764,406.976 C286.764,406.976,331.033,337.13,331.033,337.13 C332.344,333.195,332.18,330.9,330.541,330.244 C328.901,329.588,325.786,329.26,321.195,329.26 C321.195,329.26,321.195,329.26,321.195,329.26 C313.981,329.26,309.718,330.572,308.407,333.195 C308.407,333.195,308.407,333.195,308.407,333.195 C308.407,333.195,272.008,392.22,272.008,392.22 C272.008,392.22,235.61,333.195,235.61,333.195 C234.298,330.572,230.035,329.26,222.821,329.26 C222.821,329.26,222.821,329.26,222.821,329.26 C218.23,329.26,215.279,329.588,213.967,330.244 C212.656,330.9,212.984,333.195,214.951,337.13 C214.951,337.13,214.951,337.13,214.951,337.13 C214.951,337.13,258.236,405.992,258.236,405.992 C258.236,405.992,216.919,472.886,216.919,472.886 C214.951,476.821,214.623,479.117,215.935,479.772 C217.247,480.428,220.526,480.756,225.772,480.756Z"/>
</svg>

